<mxfile host="Electron" modified="2023-05-11T13:08:52.922Z" agent="Mozilla/5.0 (Windows NT 10.0; Win64; x64) AppleWebKit/537.36 (KHTML, like Gecko) draw.io/21.2.8 Chrome/112.0.5615.165 Electron/24.2.0 Safari/537.36" etag="pn4WDI227hk37j9816Wo" version="21.2.8" type="device">
  <diagram name="Page-1" id="e3a06f82-3646-2815-327d-82caf3d4e204">
    <mxGraphModel dx="1357" dy="902" grid="1" gridSize="10" guides="1" tooltips="1" connect="1" arrows="1" fold="1" page="1" pageScale="1.5" pageWidth="1169" pageHeight="826" background="none" math="0" shadow="1">
      <root>
        <mxCell id="0" style=";html=1;" />
        <mxCell id="1" style=";html=1;" parent="0" />
        <mxCell id="wptYLEPNSwvoELZBwLhr-25" value="&lt;font size=&quot;1&quot; color=&quot;#000000&quot;&gt;&lt;b style=&quot;font-size: 13px;&quot;&gt;Internet&lt;/b&gt;&lt;/font&gt;" style="ellipse;shape=cloud;whiteSpace=wrap;html=1;labelBackgroundColor=none;fontColor=#B3B3B3;labelPosition=center;verticalLabelPosition=top;align=center;verticalAlign=bottom;" parent="1" vertex="1">
          <mxGeometry x="350" y="460" width="230" height="170" as="geometry" />
        </mxCell>
        <mxCell id="6a7d8f32e03d9370-59" value="&lt;b&gt;Private server/Home PC&lt;br&gt;&lt;/b&gt;" style="whiteSpace=wrap;html=1;fillColor=#EDEDED;fontSize=14;strokeColor=none;verticalAlign=bottom;labelPosition=center;verticalLabelPosition=top;align=center;" parent="1" vertex="1">
          <mxGeometry x="1080" y="445" width="300" height="405" as="geometry" />
        </mxCell>
        <mxCell id="6a7d8f32e03d9370-60" value="&lt;b&gt;Public server&lt;br&gt;&lt;/b&gt;" style="whiteSpace=wrap;html=1;fillColor=#d5e8d4;fontSize=14;strokeColor=none;verticalAlign=bottom;labelPosition=center;verticalLabelPosition=top;align=center;" parent="1" vertex="1">
          <mxGeometry x="610" y="445" width="300" height="405" as="geometry" />
        </mxCell>
        <mxCell id="Pyz9VePpLtmn9AcQmofo-2" style="edgeStyle=orthogonalEdgeStyle;rounded=0;orthogonalLoop=1;jettySize=auto;html=1;entryX=0;entryY=0.269;entryDx=0;entryDy=0;entryPerimeter=0;strokeWidth=3;strokeColor=#007FFF;exitX=1.014;exitY=0.295;exitDx=0;exitDy=0;exitPerimeter=0;" parent="1" source="6a7d8f32e03d9370-2" target="6a7d8f32e03d9370-15" edge="1">
          <mxGeometry relative="1" as="geometry" />
        </mxCell>
        <mxCell id="Pyz9VePpLtmn9AcQmofo-3" value="&lt;b&gt;User Request&lt;/b&gt;" style="edgeLabel;html=1;align=center;verticalAlign=middle;resizable=0;points=[];labelBackgroundColor=none;fontColor=#007FFF;" parent="Pyz9VePpLtmn9AcQmofo-2" vertex="1" connectable="0">
          <mxGeometry x="-0.1839" y="-1" relative="1" as="geometry">
            <mxPoint x="-1" y="-9" as="offset" />
          </mxGeometry>
        </mxCell>
        <mxCell id="6a7d8f32e03d9370-2" value="&lt;b&gt;Clients&lt;/b&gt;" style="verticalLabelPosition=top;aspect=fixed;html=1;verticalAlign=bottom;strokeColor=none;shape=mxgraph.citrix.laptop_2;fillColor=#66B2FF;gradientColor=#0066CC;fontSize=14;labelPosition=center;align=center;" parent="1" vertex="1">
          <mxGeometry x="199.9999999999999" y="510" width="116" height="86.5" as="geometry" />
        </mxCell>
        <mxCell id="Pyz9VePpLtmn9AcQmofo-6" style="edgeStyle=orthogonalEdgeStyle;rounded=0;orthogonalLoop=1;jettySize=auto;html=1;entryX=-0.044;entryY=0.477;entryDx=0;entryDy=0;entryPerimeter=0;strokeWidth=3;fillColor=#f5f5f5;strokeColor=#b0b0b0;exitX=0.981;exitY=0.423;exitDx=0;exitDy=0;exitPerimeter=0;" parent="1" source="6a7d8f32e03d9370-15" target="6a7d8f32e03d9370-20" edge="1">
          <mxGeometry relative="1" as="geometry" />
        </mxCell>
        <mxCell id="Pyz9VePpLtmn9AcQmofo-15" value="&lt;font color=&quot;#6c8ebf&quot;&gt;&lt;b&gt;User Request&lt;/b&gt;&lt;/font&gt;" style="edgeLabel;html=1;align=center;verticalAlign=middle;resizable=0;points=[];labelBackgroundColor=none;" parent="Pyz9VePpLtmn9AcQmofo-6" vertex="1" connectable="0">
          <mxGeometry x="-0.2404" y="2" relative="1" as="geometry">
            <mxPoint x="88" y="-9" as="offset" />
          </mxGeometry>
        </mxCell>
        <mxCell id="Pyz9VePpLtmn9AcQmofo-26" style="edgeStyle=orthogonalEdgeStyle;rounded=0;orthogonalLoop=1;jettySize=auto;html=1;entryX=0.99;entryY=0.69;entryDx=0;entryDy=0;entryPerimeter=0;strokeWidth=3;strokeColor=#009900;" parent="1" target="6a7d8f32e03d9370-2" edge="1">
          <mxGeometry relative="1" as="geometry">
            <mxPoint x="720" y="570" as="sourcePoint" />
          </mxGeometry>
        </mxCell>
        <mxCell id="Pyz9VePpLtmn9AcQmofo-27" value="&lt;b&gt;&lt;font&gt;Response&lt;/font&gt;&lt;/b&gt;" style="edgeLabel;html=1;align=center;verticalAlign=middle;resizable=0;points=[];fontColor=#009900;" parent="Pyz9VePpLtmn9AcQmofo-26" vertex="1" connectable="0">
          <mxGeometry x="0.3335" y="-3" relative="1" as="geometry">
            <mxPoint x="25" y="-6" as="offset" />
          </mxGeometry>
        </mxCell>
        <mxCell id="6a7d8f32e03d9370-15" value="&lt;font style=&quot;font-size: 12px;&quot;&gt;&lt;b style=&quot;&quot;&gt;HTTP/HTTPS&lt;br&gt;server&lt;br&gt;Process #1&lt;br&gt;&lt;/b&gt;&lt;/font&gt;" style="verticalLabelPosition=top;aspect=fixed;html=1;verticalAlign=bottom;strokeColor=none;shape=mxgraph.citrix.cache_server;fillColor=#66B2FF;gradientColor=#0066CC;fontSize=14;labelPosition=center;align=center;" parent="1" vertex="1">
          <mxGeometry x="724.5" y="510" width="71" height="97.5" as="geometry" />
        </mxCell>
        <mxCell id="6a7d8f32e03d9370-20" value="&lt;b&gt;&lt;font style=&quot;font-size: 14px;&quot;&gt;Firewall&lt;/font&gt;&lt;/b&gt;" style="verticalLabelPosition=top;aspect=fixed;html=1;verticalAlign=bottom;strokeColor=none;shape=mxgraph.citrix.firewall;fillColor=#66B2FF;gradientColor=#0066CC;fontSize=14;labelPosition=center;align=center;" parent="1" vertex="1">
          <mxGeometry x="1060" y="510.00000000000006" width="70.67" height="87.63" as="geometry" />
        </mxCell>
        <mxCell id="Pyz9VePpLtmn9AcQmofo-22" style="edgeStyle=orthogonalEdgeStyle;rounded=0;orthogonalLoop=1;jettySize=auto;html=1;entryX=0.774;entryY=0.143;entryDx=0;entryDy=0;entryPerimeter=0;exitX=0.495;exitY=0.929;exitDx=0;exitDy=0;exitPerimeter=0;strokeWidth=3;strokeColor=#009900;" parent="1" source="6a7d8f32e03d9370-25" target="dOMa9YdFmdKZkA4RM8_y-1" edge="1">
          <mxGeometry relative="1" as="geometry">
            <Array as="points">
              <mxPoint x="1248" y="588" />
              <mxPoint x="1247" y="588" />
            </Array>
          </mxGeometry>
        </mxCell>
        <mxCell id="Pyz9VePpLtmn9AcQmofo-23" value="&lt;font color=&quot;#009900&quot;&gt;Response&lt;/font&gt;" style="edgeLabel;html=1;align=center;verticalAlign=middle;resizable=0;points=[];labelBackgroundColor=none;fontStyle=1" parent="Pyz9VePpLtmn9AcQmofo-22" vertex="1" connectable="0">
          <mxGeometry x="-0.1717" y="3" relative="1" as="geometry">
            <mxPoint x="27" y="9" as="offset" />
          </mxGeometry>
        </mxCell>
        <mxCell id="6a7d8f32e03d9370-25" value="&lt;font style=&quot;font-size: 12px&quot;&gt;&lt;b style=&quot;&quot;&gt;Local server&lt;br&gt;Process #4&lt;/b&gt;&lt;/font&gt;" style="verticalLabelPosition=top;aspect=fixed;html=1;verticalAlign=bottom;strokeColor=none;shape=mxgraph.citrix.proxy_server;fillColor=#66B2FF;gradientColor=#0066CC;fontSize=14;labelPosition=center;align=center;" parent="1" vertex="1">
          <mxGeometry x="1210" y="506.5" width="76.5" height="90" as="geometry" />
        </mxCell>
        <mxCell id="Pyz9VePpLtmn9AcQmofo-28" style="edgeStyle=orthogonalEdgeStyle;rounded=0;orthogonalLoop=1;jettySize=auto;html=1;entryX=0.216;entryY=0.832;entryDx=0;entryDy=0;entryPerimeter=0;exitX=0.191;exitY=0.171;exitDx=0;exitDy=0;exitPerimeter=0;strokeWidth=3;strokeColor=#009900;jumpStyle=none;" parent="1" source="6a7d8f32e03d9370-30" target="6a7d8f32e03d9370-15" edge="1">
          <mxGeometry relative="1" as="geometry" />
        </mxCell>
        <mxCell id="Pyz9VePpLtmn9AcQmofo-29" value="&lt;b&gt;&lt;font color=&quot;#009900&quot;&gt;Response&lt;/font&gt;&lt;/b&gt;" style="edgeLabel;html=1;align=center;verticalAlign=middle;resizable=0;points=[];labelBackgroundColor=none;" parent="Pyz9VePpLtmn9AcQmofo-28" vertex="1" connectable="0">
          <mxGeometry x="0.2224" y="2" relative="1" as="geometry">
            <mxPoint x="-28" y="8" as="offset" />
          </mxGeometry>
        </mxCell>
        <mxCell id="6a7d8f32e03d9370-30" value="&lt;font style=&quot;font-size: 12px;&quot;&gt;&lt;b style=&quot;&quot;&gt;websocket-reverse-proxy&lt;br&gt;#server&lt;br&gt;Process #2&lt;br&gt;&lt;/b&gt;&lt;/font&gt;" style="verticalLabelPosition=bottom;aspect=fixed;html=1;verticalAlign=top;strokeColor=none;shape=mxgraph.citrix.web_service;fillColor=#66B2FF;gradientColor=#0066CC;fontSize=14;" parent="1" vertex="1">
          <mxGeometry x="728.5" y="705" width="63" height="60" as="geometry" />
        </mxCell>
        <mxCell id="Pyz9VePpLtmn9AcQmofo-10" value="" style="whiteSpace=wrap;html=1;fillColor=#e1d5e7;strokeColor=#9673a6;" parent="1" vertex="1">
          <mxGeometry x="790" y="705" width="410" height="60" as="geometry" />
        </mxCell>
        <mxCell id="Pyz9VePpLtmn9AcQmofo-14" value="&lt;b&gt;WebSocket connection&lt;br&gt;from #client to #server&lt;br&gt;&lt;/b&gt;" style="text;html=1;align=center;verticalAlign=middle;resizable=0;points=[];autosize=1;strokeColor=none;fillColor=none;" parent="1" vertex="1">
          <mxGeometry x="915" y="665" width="160" height="40" as="geometry" />
        </mxCell>
        <mxCell id="Pyz9VePpLtmn9AcQmofo-17" style="edgeStyle=orthogonalEdgeStyle;rounded=0;orthogonalLoop=1;jettySize=auto;html=1;entryX=0.036;entryY=0.29;entryDx=0;entryDy=0;entryPerimeter=0;strokeWidth=3;strokeColor=#007FFF;exitX=0.889;exitY=0.29;exitDx=0;exitDy=0;exitPerimeter=0;" parent="1" source="6a7d8f32e03d9370-30" target="dOMa9YdFmdKZkA4RM8_y-1" edge="1">
          <mxGeometry relative="1" as="geometry" />
        </mxCell>
        <mxCell id="Pyz9VePpLtmn9AcQmofo-18" value="&lt;font&gt;&lt;b&gt;User Request&lt;/b&gt;&lt;/font&gt;" style="edgeLabel;html=1;align=center;verticalAlign=middle;resizable=0;points=[];labelBackgroundColor=none;fontColor=#007FFF;" parent="Pyz9VePpLtmn9AcQmofo-17" vertex="1" connectable="0">
          <mxGeometry x="-0.0878" relative="1" as="geometry">
            <mxPoint x="20" y="-7" as="offset" />
          </mxGeometry>
        </mxCell>
        <mxCell id="Pyz9VePpLtmn9AcQmofo-20" style="edgeStyle=orthogonalEdgeStyle;rounded=0;orthogonalLoop=1;jettySize=auto;html=1;strokeWidth=3;strokeColor=#007FFF;exitX=0.345;exitY=0.019;exitDx=0;exitDy=0;exitPerimeter=0;entryX=0.121;entryY=0.891;entryDx=0;entryDy=0;entryPerimeter=0;" parent="1" source="dOMa9YdFmdKZkA4RM8_y-1" target="6a7d8f32e03d9370-25" edge="1">
          <mxGeometry relative="1" as="geometry">
            <Array as="points">
              <mxPoint x="1220" y="587" />
            </Array>
            <mxPoint x="1200" y="590" as="targetPoint" />
          </mxGeometry>
        </mxCell>
        <mxCell id="Pyz9VePpLtmn9AcQmofo-21" value="&lt;font&gt;&lt;b&gt;User Request&lt;/b&gt;&lt;/font&gt;" style="edgeLabel;html=1;align=center;verticalAlign=middle;resizable=0;points=[];labelBackgroundColor=none;fontColor=#007FFF;" parent="Pyz9VePpLtmn9AcQmofo-20" vertex="1" connectable="0">
          <mxGeometry x="0.3547" y="-2" relative="1" as="geometry">
            <mxPoint x="-42" y="22" as="offset" />
          </mxGeometry>
        </mxCell>
        <mxCell id="Pyz9VePpLtmn9AcQmofo-24" style="edgeStyle=orthogonalEdgeStyle;rounded=0;orthogonalLoop=1;jettySize=auto;html=1;entryX=0.976;entryY=0.773;entryDx=0;entryDy=0;entryPerimeter=0;exitX=0.2;exitY=0.761;exitDx=0;exitDy=0;exitPerimeter=0;strokeWidth=3;strokeColor=#009900;" parent="1" source="dOMa9YdFmdKZkA4RM8_y-1" target="6a7d8f32e03d9370-30" edge="1">
          <mxGeometry relative="1" as="geometry" />
        </mxCell>
        <mxCell id="Pyz9VePpLtmn9AcQmofo-25" value="&lt;b&gt;&lt;font color=&quot;#009900&quot;&gt;Response&lt;/font&gt;&lt;/b&gt;" style="edgeLabel;html=1;align=center;verticalAlign=middle;resizable=0;points=[];labelBackgroundColor=none;" parent="Pyz9VePpLtmn9AcQmofo-24" vertex="1" connectable="0">
          <mxGeometry x="0.282" y="-3" relative="1" as="geometry">
            <mxPoint x="53" y="-6" as="offset" />
          </mxGeometry>
        </mxCell>
        <mxCell id="dOMa9YdFmdKZkA4RM8_y-1" value="&lt;font style=&quot;font-size: 12px;&quot;&gt;&lt;b style=&quot;&quot;&gt;websocket-reverse-proxy&lt;br&gt;#client&lt;br&gt;Process #3&lt;br&gt;&lt;/b&gt;&lt;/font&gt;" style="verticalLabelPosition=bottom;aspect=fixed;html=1;verticalAlign=top;strokeColor=none;shape=mxgraph.citrix.web_service;fillColor=#66B2FF;gradientColor=#0066CC;fontSize=14;" parent="1" vertex="1">
          <mxGeometry x="1198.5" y="705" width="63" height="60" as="geometry" />
        </mxCell>
        <mxCell id="dOMa9YdFmdKZkA4RM8_y-12" style="edgeStyle=orthogonalEdgeStyle;rounded=0;orthogonalLoop=1;jettySize=auto;html=1;startArrow=classic;startFill=1;endArrow=none;endFill=0;strokeWidth=3;curved=1;fillColor=#dae8fc;strokeColor=#007FFF;exitX=0.703;exitY=0.106;exitDx=0;exitDy=0;exitPerimeter=0;" parent="1" source="6a7d8f32e03d9370-30" edge="1">
          <mxGeometry relative="1" as="geometry">
            <mxPoint x="773" y="603" as="targetPoint" />
            <Array as="points">
              <mxPoint x="773" y="603" />
            </Array>
          </mxGeometry>
        </mxCell>
        <mxCell id="dOMa9YdFmdKZkA4RM8_y-18" value="&lt;b&gt;&lt;font&gt;User request&lt;/font&gt;&lt;/b&gt;" style="edgeLabel;html=1;align=center;verticalAlign=middle;resizable=0;points=[];labelBackgroundColor=none;fontColor=#007FFF;labelBorderColor=none;" parent="dOMa9YdFmdKZkA4RM8_y-12" vertex="1" connectable="0">
          <mxGeometry x="-0.0519" y="1" relative="1" as="geometry">
            <mxPoint x="36" y="-13" as="offset" />
          </mxGeometry>
        </mxCell>
      </root>
    </mxGraphModel>
  </diagram>
</mxfile>
